HIERARCHY
ROOT Hips
{
	OFFSET 55.126202 -8.859924 85.761299
	CHANNELS 6 Xposition Yposition Zposition Xrotation Yrotation Zrotation
	JOINT spine
	{
		OFFSET 0.000000 -0.367607 6.392601
		CHANNELS 3 Xrotation Yrotation Zrotation
		JOINT spine1
		{
			OFFSET 0.000000 -0.000001 9.176109
			CHANNELS 3 Xrotation Yrotation Zrotation
			JOINT spine2
			{
				OFFSET 0.000000 -0.000002 8.792381
				CHANNELS 3 Xrotation Yrotation Zrotation
				JOINT Neck
				{
					OFFSET 0.000000 -1.076243 22.573700
					CHANNELS 3 Xrotation Yrotation Zrotation
					JOINT Head
					{
						OFFSET 0.000000 -0.000001 6.820114
						CHANNELS 3 Xrotation Yrotation Zrotation
						End Site
						{
							OFFSET 0.000000 5.444268 16.508499
						}
					}
				}
				JOINT RightShoulder
				{
					OFFSET -3.702209 0.515507 9.495087
					CHANNELS 3 Xrotation Yrotation Zrotation
					JOINT RightArm
					{
						OFFSET 0.000000 -0.000003 12.453705
						CHANNELS 3 Xrotation Yrotation Zrotation
						JOINT RightArmRoll
						{
							OFFSET 0.000000 -0.000001 6.286865
							CHANNELS 3 Xrotation Yrotation Zrotation
							JOINT RightForeArm
							{
								OFFSET 0.000000 -0.000003 18.311401
								CHANNELS 3 Xrotation Yrotation Zrotation
								JOINT RightForeArmRoll
								{
									OFFSET 0.000000 -0.000001 7.054825
									CHANNELS 3 Xrotation Yrotation Zrotation
									JOINT RightHand
									{
										OFFSET 0.000000 -0.000002 14.157501
										CHANNELS 3 Xrotation Yrotation Zrotation
										End Site
										{
											OFFSET 0.000000 0.000000 0.100006
										}
									}
								}
							}
						}
					}
				}
				JOINT LeftShoulder
				{
					OFFSET 3.702209 0.515507 9.495087
					CHANNELS 3 Xrotation Yrotation Zrotation
					JOINT LeftArm
					{
						OFFSET 0.000000 -0.000003 12.453705
						CHANNELS 3 Xrotation Yrotation Zrotation
						JOINT LeftArmRoll
						{
							OFFSET 0.000000 -0.000001 6.286865
							CHANNELS 3 Xrotation Yrotation Zrotation
							JOINT LeftForeArm
							{
								OFFSET 0.000000 -0.000003 18.311401
								CHANNELS 3 Xrotation Yrotation Zrotation
								JOINT LeftForeArmRoll
								{
									OFFSET 0.000000 -0.000001 7.054825
									CHANNELS 3 Xrotation Yrotation Zrotation
									JOINT LeftHand
									{
										OFFSET 0.000000 -0.000002 14.157501
										CHANNELS 3 Xrotation Yrotation Zrotation
										End Site
										{
											OFFSET 0.000000 0.000000 0.100006
										}
									}
								}
							}
						}
					}
				}
			}
		}
	}
	JOINT RightUpLeg
	{
		OFFSET -5.666161 0.871611 -1.039032
		CHANNELS 3 Xrotation Yrotation Zrotation
		JOINT RightUpLegRoll
		{
			OFFSET 0.000000 -0.000003 16.600502
			CHANNELS 3 Xrotation Yrotation Zrotation
			JOINT RightLeg
			{
				OFFSET 0.000000 0.000003 -20.557198
				CHANNELS 3 Xrotation Yrotation Zrotation
				JOINT RightLegRoll
				{
					OFFSET 0.000000 -0.000003 20.624397
					CHANNELS 3 Xrotation Yrotation Zrotation
					JOINT RightFoot
					{
						OFFSET 0.000000 -0.000003 17.166397
						CHANNELS 3 Xrotation Yrotation Zrotation
						JOINT RightToeBase
						{
							OFFSET 0.000000 -0.000002 14.350204
							CHANNELS 3 Xrotation Yrotation Zrotation
							End Site
							{
								OFFSET 0.006081 0.801060 6.949707
							}
						}
					}
				}
			}
		}
	}
	JOINT LeftUpLeg
	{
		OFFSET 5.666161 0.871611 -1.039032
		CHANNELS 3 Xrotation Yrotation Zrotation
		JOINT LeftUpLegRoll
		{
			OFFSET 0.000000 -0.000003 16.600601
			CHANNELS 3 Xrotation Yrotation Zrotation
			JOINT LeftLeg
			{
				OFFSET 0.000000 -0.000003 20.557098
				CHANNELS 3 Xrotation Yrotation Zrotation
				JOINT LeftLegRoll
				{
					OFFSET 0.000000 -0.000003 20.815102
					CHANNELS 3 Xrotation Yrotation Zrotation
					JOINT LeftFoot
					{
						OFFSET 0.000000 -0.000003 16.975708
						CHANNELS 3 Xrotation Yrotation Zrotation
						JOINT LeftToeBase
						{
							OFFSET 0.000000 -0.000002 14.350204
							CHANNELS 3 Xrotation Yrotation Zrotation
							End Site
							{
								OFFSET -0.027260 0.801060 6.949707
							}
						}
					}
				}
			}
		}
	}
}
MOTION
Frames: 6
Frame Time: 0.041667
54.647995 -8.737606 85.745506 -2.127273 0.968464 1.460822 -1.477599 0.282100 -0.116822 1.048191 0.566045 -0.229661 2.693300 0.563251 -0.236432 18.191630 -2.822169 -1.312660 13.271680 2.778122 -1.758474 -20.979081 -27.627463 -25.447777 -114.606695 -131.145602 -62.510581 -0.000001 0.000001 -0.000004 38.112312 8.202990 -0.947810 -0.000004 0.000002 -3.003130 -5.000223 -7.998792 0.000161 -15.541962 22.315640 17.338715 -116.668565 125.558425 71.597356 -0.000001 0.000004 0.000007 33.077397 -14.656117 1.336997 -0.000003 -0.000006 3.007889 -5.000211 7.998832 -0.000141 0.433613 -177.639068 -0.329849 -179.999991 0.000005 -1.038006 174.861572 -2.995930 -0.506283 0.000003 -0.000002 0.042437 68.861414 6.871271 2.195299 25.456858 -7.355622 -0.000003 1.057645 175.081832 0.606441 -0.000005 -0.000004 -1.048570 -5.587045 1.001123 0.535253 0.000001 -0.000004 -0.010726 68.946361 -6.586065 -2.924949 25.457263 7.355614 -0.000437 
54.593597 -8.740584 85.758698 -2.104310 0.966610 1.462935 -1.483626 0.281828 -0.112816 1.036100 0.565447 -0.221662 2.681209 0.562749 -0.228426 18.175910 -2.859230 -1.321778 13.243110 2.809883 -1.771188 -21.018169 -27.742379 -25.501824 -114.511741 -131.046933 -62.644453 -0.000000 0.000000 -0.000001 37.456696 8.299262 -0.979625 -0.000008 0.000002 -3.003130 -5.000222 -7.998790 0.000162 -15.495913 22.401786 17.271935 -116.602326 125.350760 71.845742 -0.000001 0.000004 0.000007 32.418858 -14.626848 1.336816 -0.000006 -0.000006 3.007888 -5.000210 7.998834 -0.000139 0.411742 -177.631063 -0.326435 -179.999991 0.000005 -1.038006 174.862651 -3.001909 -0.505766 0.000003 -0.000002 0.042436 68.862985 6.871226 2.194992 25.456863 -7.355623 -0.000003 1.033636 175.089796 0.618750 -0.000005 -0.000005 -1.048720 -5.588167 0.996105 0.534497 0.000001 -0.000004 -0.010893 68.946286 -6.586517 -2.923737 25.457264 7.355614 -0.000436 
54.387398 -8.716953 85.772804 -2.082294 0.964736 1.464025 -1.489438 0.281502 -0.109047 1.024469 0.564742 -0.214116 2.669568 0.562136 -0.220872 18.160063 -2.893895 -1.329880 13.215038 2.841178 -1.782874 -21.054473 -27.856848 -25.551984 -114.414227 -130.946734 -62.777669 -0.000001 0.000000 -0.000002 36.798327 8.392710 -1.008682 -0.000008 0.000000 -3.003129 -5.000217 -7.998788 0.000163 -15.450834 22.488044 17.206736 -116.535417 125.142548 72.097223 -0.000001 0.000003 0.000008 31.758826 -14.590041 1.333518 -0.000007 -0.000006 3.007890 -5.000206 7.998833 -0.000142 0.390550 -177.623058 -0.323115 -179.999991 0.000005 -1.038006 174.863648 -3.006893 -0.506161 0.000003 -0.000002 0.042434 68.864542 6.871143 2.194581 25.456860 -7.355624 -0.000004 1.011091 175.097760 0.630566 -0.000005 -0.000004 -1.048880 -5.588749 0.991350 0.533718 0.000000 -0.000004 -0.011058 68.946361 -6.587085 -2.922239 25.457263 7.355614 -0.000436 
54.423798 -8.719367 85.756691 -2.061691 0.962838 1.463820 -1.494886 0.281130 -0.105619 1.013539 0.563951 -0.207216 2.658648 0.561428 -0.213962 18.143764 -2.925561 -1.336571 13.187558 2.871820 -1.793128 -21.087278 -27.970808 -25.597042 -114.313707 -130.844472 -62.909396 -0.000001 0.000001 -0.000003 36.136813 8.483203 -1.034712 -0.000007 0.000000 -3.003130 -5.000220 -7.998790 0.000161 -15.407739 22.574718 17.144511 -116.467539 124.934187 72.352228 -0.000001 0.000004 0.000007 31.096495 -14.545320 1.326870 -0.000004 -0.000006 3.007891 -5.000206 7.998836 -0.000137 0.370414 -177.615053 -0.319944 -179.999991 0.000005 -1.038006 174.864454 -3.010882 -0.505466 0.000003 -0.000002 0.042432 68.865901 6.871120 2.194292 25.456856 -7.355625 -0.000003 0.990593 175.105724 0.641636 -0.000005 -0.000004 -1.049070 -5.588671 0.987017 0.532929 0.000001 -0.000004 -0.011219 68.946484 -6.587868 -2.920177 25.457263 7.355613 -0.000437 
54.426098 -8.737584 85.763306 -2.042943 0.960913 1.462045 -1.499867 0.280725 -0.102627 1.003579 0.563097 -0.201153 2.648676 0.560647 -0.207888 18.126612 -2.953606 -1.341454 13.160969 2.901629 -1.801514 -21.115977 -28.084739 -25.636118 -114.210072 -130.739929 -63.039245 -0.000001 -0.000000 -0.000002 35.471542 8.570794 -1.057521 -0.000004 0.000000 -3.003130 -5.000218 -7.998791 0.000163 -15.367171 22.661750 17.086280 -116.398950 124.725852 72.611734 -0.000001 0.000006 0.000007 30.430760 -14.492345 1.316596 -0.000003 -0.000005 3.007889 -5.000211 7.998832 -0.000140 0.351711 -177.608045 -0.316977 -179.999991 0.000005 -1.038006 174.865069 -3.014872 -0.505791 0.000003 -0.000002 0.042430 68.867158 6.871088 2.193908 25.456858 -7.355622 -0.000003 0.972725 175.112690 0.651691 -0.000005 -0.000004 -1.049290 -5.587775 0.983249 0.532137 0.000001 -0.000004 -0.011376 68.946682 -6.588866 -2.917553 25.457264 7.355615 -0.000436 
54.383797 -8.727475 85.762596 -2.026515 0.958956 1.458420 -1.504236 0.280294 -0.100171 0.994823 0.562199 -0.196118 2.639926 0.559810 -0.202841 18.108385 -2.977415 -1.344110 13.135479 2.930429 -1.807634 -21.139540 -28.198723 -25.667672 -114.102524 -130.632818 -63.166191 -0.000001 -0.000000 -0.000001 34.802023 8.655532 -1.076929 -0.000009 0.000004 -3.003130 -5.000218 -7.998790 0.000162 -15.330010 22.749149 17.033308 -116.329624 124.517805 72.876752 -0.000001 0.000004 0.000006 29.760941 -14.430851 1.302630 -0.000007 -0.000005 3.007890 -5.000208 7.998833 -0.000137 0.334815 -177.601038 -0.314259 -179.999991 0.000005 -1.038006 174.865479 -3.017868 -0.506038 0.000003 -0.000002 0.042428 68.868203 6.871046 2.193636 25.456863 -7.355624 -0.000003 0.958074 175.119685 0.660494 -0.000005 -0.000005 -1.049540 -5.585939 0.980194 0.531351 0.000001 -0.000004 -0.011527 68.946935 -6.590083 -2.914463 25.457264 7.355615 -0.000436 
